<?xml version="1.0" standalone="no"?>
<!DOCTYPE svg PUBLIC "-//W3C//DTD SVG 20010904//EN"
 "http://www.w3.org/TR/2001/REC-SVG-20010904/DTD/svg10.dtd">
<svg version="1.0" xmlns="http://www.w3.org/2000/svg"
 width="787.000000pt" height="855.000000pt" viewBox="0 0 787.000000 855.000000"
 preserveAspectRatio="xMidYMid meet">
<g transform="translate(0.000000,855.000000) scale(0.100000,-0.100000)" stroke="none">
<path fill="#a5aab8" d="M2980 8534 c-228 -45 -353 -84 -521 -164 -92 -44 -171 -80 -174 -80
-10 0 -274 -128 -475 -230 -74 -37 -103 -61 -231 -189 -80 -80 -165 -175 -189
-211 -50 -75 -235 -268 -330 -345 -36 -28 -97 -81 -136 -116 -39 -35 -104 -93
-144 -128 -104 -89 -276 -287 -326 -374 -42 -73 -64 -162 -74 -306 -18 -253
-30 -346 -55 -436 -14 -49 -45 -167 -69 -262 -24 -94 -61 -211 -81 -260 -116
-280 -121 -297 -129 -453 -6 -132 -4 -159 21 -300 24 -137 28 -179 27 -360 0
-119 -5 -230 -12 -265 -19 -92 -26 -393 -13 -533 11 -117 25 -200 71 -414 17
-84 19 -109 10 -185 -8 -77 -17 -102 -70 -208 -67 -134 -80 -186 -80 -319 0
-69 6 -114 26 -181 43 -148 83 -212 185 -292 33 -25 84 -77 114 -114 46 -57
68 -74 130 -104 129 -62 233 -151 293 -251 102 -171 405 -514 576 -652 131
-105 227 -148 242 -108 10 26 -14 54 -134 154 -188 159 -449 438 -628 672 -62
81 -77 103 -135 210 -25 47 -63 114 -83 150 -63 108 -167 370 -215 540 -64
223 -101 407 -132 641 -58 447 -51 1016 17 1429 34 202 126 570 175 693 79
198 196 407 322 572 492 647 976 983 1657 1150 200 49 471 99 685 127 154 20
224 23 485 23 327 0 386 -5 625 -56 184 -38 262 -60 490 -135 399 -131 735
-298 1069 -532 289 -203 471 -397 682 -724 94 -147 252 -459 308 -610 95 -256
188 -625 221 -872 19 -146 29 -496 18 -631 l-8 -100 -103 -5 c-94 -5 -106 -7
-123 -29 -20 -24 -24 -57 -11 -79 13 -20 71 -32 154 -32 105 0 238 -42 311
-99 109 -84 174 -161 207 -244 73 -182 67 -374 -15 -536 -99 -198 -291 -334
-539 -382 -116 -23 -139 -39 -177 -122 -81 -179 -264 -456 -419 -637 -143
-165 -305 -313 -518 -472 -236 -177 -320 -216 -847 -398 -242 -83 -465 -157
-495 -165 -30 -7 -99 -25 -154 -39 -54 -14 -147 -33 -205 -42 -58 -8 -138 -22
-176 -30 -57 -11 -105 -12 -250 -4 -341 18 -665 53 -840 91 -115 25 -151 25
-165 -1 -16 -31 15 -53 121 -89 224 -73 225 -74 659 -78 540 -6 717 9 981 86
57 16 154 42 214 56 61 14 144 36 185 50 41 13 131 40 200 60 111 32 341 122
486 189 67 32 295 177 359 229 27 23 91 78 140 122 50 44 137 119 195 166 58
48 137 120 176 161 112 118 371 471 440 599 39 74 70 118 85 125 13 6 67 32
119 57 52 25 127 55 165 66 77 22 137 57 233 134 71 58 109 112 157 226 65
154 77 277 54 556 l-12 140 31 111 c17 61 53 167 81 236 70 177 122 399 152
653 5 44 14 109 20 145 8 43 10 196 6 450 -4 325 -8 404 -25 505 -11 66 -26
161 -32 210 -7 50 -32 155 -56 235 -23 80 -46 163 -49 185 -13 78 -53 183
-175 455 -16 36 -32 75 -35 87 -8 30 -169 297 -215 358 -45 59 -93 126 -155
217 -56 82 -534 570 -664 680 -93 77 -155 118 -331 220 -47 27 -110 67 -140
88 -30 20 -93 57 -139 80 -47 23 -114 64 -150 91 -68 52 -90 64 -341 178 -147
67 -211 89 -550 195 -231 72 -309 87 -465 92 -77 3 -165 11 -195 19 -113 28
-243 35 -666 34 -333 -1 -446 -4 -504 -15z m-2755 -6117 c83 -262 110 -338
154 -437 56 -124 50 -128 -43 -35 -95 95 -155 198 -187 323 -20 81 -25 185
-10 242 6 19 15 55 22 80 l12 45 13 -68 c8 -37 25 -105 39 -150z"/>
<path fill="#a5aab8" d="M3905 5910 c-22 -25 -14 -61 23 -95 56 -54 176 -124 248 -147 41 -12
74 -25 74 -28 0 -4 -26 -14 -57 -24 -244 -77 -564 -336 -703 -569 -123 -208
-177 -431 -167 -687 10 -230 51 -390 149 -581 163 -318 439 -553 757 -645 151
-44 266 -57 450 -51 229 7 323 30 571 144 170 78 353 218 452 345 88 113 111
155 155 283 l37 110 4 231 c3 185 1 248 -13 319 -38 206 -139 441 -255 596
-55 74 -187 204 -272 268 -32 24 -105 71 -163 106 l-105 62 72 7 c125 12 158
30 158 89 0 13 -9 32 -20 42 -19 17 -29 18 -178 5 -241 -19 -526 8 -791 76
-147 38 -158 43 -268 114 -84 55 -128 64 -158 30z m725 -360 c260 -32 555
-174 757 -364 151 -142 258 -312 323 -515 51 -160 64 -249 65 -431 0 -186 -12
-267 -57 -384 -105 -276 -422 -517 -807 -616 -106 -27 -134 -30 -272 -31 -277
0 -517 71 -696 206 -222 166 -381 406 -458 689 -33 122 -45 335 -26 466 24
169 117 393 214 519 87 113 303 284 452 358 118 59 265 100 405 112 9 0 54 -4
100 -9z"/>
<path fill="#a5aab8" d="M4197 4528 c-51 -52 -43 -198 13 -228 26 -14 124 -40 150 -40 26 0
99 66 106 95 3 13 -2 38 -12 56 -45 89 -88 119 -186 134 -41 6 -50 4 -71 -17z"/>
<path fill="#a5aab8" d="M1762 5814 c-12 -8 -34 -40 -48 -70 -20 -43 -41 -66 -88 -101 -83
-61 -244 -138 -341 -163 -136 -34 -325 -78 -438 -101 -147 -30 -185 -62 -138
-120 l19 -24 -63 -58 c-228 -208 -359 -501 -381 -852 -20 -320 88 -674 280
-913 162 -202 366 -346 571 -403 99 -27 335 -37 456 -19 217 31 506 146 669
265 198 145 371 457 415 750 85 565 -212 1107 -725 1324 -138 58 -184 73 -293
96 -42 9 -75 20 -72 25 3 4 31 23 62 40 83 47 176 143 196 204 22 63 21 89 0
108 -29 25 -57 29 -81 12z m-151 -513 c129 -28 236 -64 344 -118 126 -63 195
-115 307 -231 223 -232 323 -535 291 -879 -21 -217 -117 -439 -268 -616 -106
-126 -282 -222 -555 -304 l-125 -37 -195 0 c-192 0 -197 0 -282 30 -145 51
-230 106 -349 224 -200 199 -301 393 -349 675 -26 153 -25 243 4 417 28 161
54 239 122 364 61 113 122 192 197 257 132 114 233 171 350 200 34 9 87 23
117 31 73 20 263 14 391 -13z"/>
<path fill="#a5aab8" d="M1162 4414 c-130 -65 -121 -151 24 -223 61 -31 108 -24 151 23 60 65
54 115 -23 186 -52 48 -79 50 -152 14z"/>
<path fill="#a5aab8" d="M2886 3290 c-46 -41 -134 -157 -194 -257 -46 -76 -51 -90 -62 -182
-9 -72 -9 -109 -2 -131 13 -36 127 -166 162 -185 44 -23 171 -29 231 -11 168
49 451 290 432 369 -9 36 -23 47 -61 47 -30 0 -43 -9 -96 -66 -122 -132 -275
-224 -375 -224 -53 0 -56 2 -112 58 l-58 57 15 68 c17 81 56 161 120 246 111
146 124 165 124 187 0 26 -34 54 -67 54 -12 0 -38 -14 -57 -30z"/>
<path fill="#a5aab8" d="M2814 2126 c-28 -23 -28 -24 -35 -197 -4 -96 -8 -231 -8 -300 -1
-120 1 -131 34 -223 58 -160 70 -176 175 -225 82 -39 110 -39 154 -1 38 34 37
35 60 -36 24 -74 67 -137 126 -183 77 -61 122 -55 213 28 42 38 105 168 117
243 14 86 13 274 -1 301 -24 45 -67 50 -98 11 -18 -22 -21 -41 -21 -113 0 -85
-28 -239 -51 -283 -16 -31 -60 -78 -74 -78 -13 0 -44 40 -67 85 -19 36 -45
148 -63 269 -16 100 -32 126 -81 126 -53 0 -65 -19 -79 -120 -9 -65 -42 -130
-67 -130 -37 0 -83 62 -109 146 -23 76 -24 90 -24 377 0 284 -1 299 -19 313
-28 20 -51 17 -82 -10z"/>
<path fill="#a5aab8" d="M1612 668 c-7 -7 -12 -17 -12 -24 0 -25 203 -194 284 -236 45 -23
104 -56 131 -73 83 -53 167 -92 290 -135 122 -42 156 -47 200 -30 19 7 26 16
23 32 -3 23 -8 26 -198 96 -114 42 -332 158 -557 295 -77 48 -143 87 -145 87
-2 0 -9 -5 -16 -12z"/>
</g>
</svg>
